# Blender 5.1.2
# www.blender.org
mtllib FootballPentagon.mtl
o Cylinder
v 0.000000 -1.053317 -0.341081
v 0.000000 1.040166 -0.341081
v 0.324387 -1.053317 -0.105400
v 0.324387 1.040166 -0.105400
v 0.200482 -1.053317 0.275940
v 0.200482 1.040166 0.275940
v -0.200482 -1.053317 0.275940
v -0.200482 1.040166 0.275940
v -0.324387 -1.053317 -0.105400
v -0.324387 1.040165 -0.105400
v 0.081097 -1.057325 -0.282161
v 0.162194 -1.058806 -0.223240
v 0.243290 -1.057325 -0.164320
v 0.243290 1.043574 -0.164320
v 0.162194 1.045727 -0.223240
v 0.081097 1.043574 -0.282161
v 0.000000 -0.519197 -0.341081
v 0.000000 0.000000 -0.341081
v 0.000000 0.519197 -0.341081
v 0.324387 0.519197 -0.105400
v 0.324387 0.000000 -0.105400
v 0.324387 -0.519197 -0.105400
v 0.293411 -1.057325 -0.010065
v 0.262435 -1.058806 0.085270
v 0.231458 -1.057325 0.180605
v 0.231458 1.043574 0.180605
v 0.262435 1.045727 0.085270
v 0.293411 1.043574 -0.010065
v 0.200482 0.519197 0.275940
v 0.200482 0.000000 0.275940
v 0.200482 -0.519197 0.275940
v 0.100241 -1.057325 0.275940
v 0.000000 -1.058806 0.275940
v -0.100241 -1.057325 0.275940
v -0.100241 1.043574 0.275940
v 0.000000 1.045727 0.275940
v 0.100241 1.043574 0.275940
v -0.200482 0.519197 0.275940
v -0.200482 0.000000 0.275940
v -0.200482 -0.519197 0.275940
v -0.231458 -1.057325 0.180605
v -0.262435 -1.058806 0.085270
v -0.293411 -1.057325 -0.010065
v -0.293411 1.043574 -0.010065
v -0.262435 1.045727 0.085270
v -0.231458 1.043574 0.180605
v -0.324387 0.519197 -0.105400
v -0.324387 0.000000 -0.105400
v -0.324387 -0.519197 -0.105400
v -0.243290 -1.057325 -0.164320
v -0.162194 -1.058806 -0.223240
v -0.081097 -1.057325 -0.282161
v -0.081097 1.043574 -0.282161
v -0.162194 1.045727 -0.223240
v -0.243290 1.043574 -0.164320
v 0.081097 -0.519356 -0.282161
v 0.081097 0.000000 -0.282161
v 0.081097 0.519197 -0.282161
v 0.162194 -0.519482 -0.223240
v 0.162194 0.000000 -0.223240
v 0.162194 0.519197 -0.223240
v 0.243290 -0.519356 -0.164320
v 0.243290 0.000000 -0.164320
v 0.243290 0.519197 -0.164320
v 0.293411 -0.519356 -0.010065
v 0.293411 0.000000 -0.010065
v 0.293411 0.519197 -0.010065
v 0.262435 -0.519482 0.085270
v 0.262435 0.000000 0.085270
v 0.262435 0.519197 0.085270
v 0.231458 -0.519356 0.180605
v 0.231458 0.000000 0.180605
v 0.231458 0.519197 0.180605
v 0.100241 -0.519356 0.275940
v 0.100241 0.000000 0.275940
v 0.100241 0.519197 0.275940
v 0.000000 -0.519482 0.275940
v -0.000000 0.000000 0.275940
v 0.000000 0.519197 0.275940
v -0.100241 -0.519356 0.275940
v -0.100241 0.000000 0.275940
v -0.100241 0.519197 0.275940
v 0.000000 1.085535 0.000000
v 0.189795 1.058516 -0.061668
v 0.082917 1.069664 -0.114125
v 0.000000 1.058516 -0.199562
v -0.082917 1.069664 -0.114125
v -0.189795 1.058516 -0.061668
v -0.134162 1.069664 0.043592
v -0.117300 1.058516 0.161449
v -0.000000 1.069664 0.141066
v 0.117300 1.058516 0.161449
v 0.134162 1.069664 0.043592
v -0.231458 -0.519356 0.180605
v -0.231458 0.000000 0.180605
v -0.231458 0.519197 0.180605
v -0.262435 -0.519482 0.085270
v -0.262435 0.000000 0.085270
v -0.262435 0.519197 0.085270
v -0.293411 -0.519356 -0.010065
v -0.293411 0.000000 -0.010065
v -0.293411 0.519197 -0.010065
v -0.243290 -0.519356 -0.164320
v -0.243290 0.000000 -0.164320
v -0.243290 0.519197 -0.164320
v -0.162194 -0.519482 -0.223240
v -0.162194 0.000000 -0.223240
v -0.162194 0.519197 -0.223240
v -0.081097 -0.519356 -0.282161
v -0.081097 0.000000 -0.282161
v -0.081097 0.519197 -0.282161
v -0.000000 -1.073403 0.000000
v 0.000000 -1.064878 -0.199562
v 0.082917 -1.068803 -0.114125
v 0.189795 -1.064878 -0.061668
v 0.134162 -1.068803 0.043592
v 0.117300 -1.064878 0.161449
v 0.000000 -1.068803 0.141066
v -0.117300 -1.064878 0.161449
v -0.134162 -1.068803 0.043592
v -0.189795 -1.064878 -0.061668
v -0.082917 -1.068803 -0.114125
vn 0.5878 -0.0000 -0.8090
vn 0.9511 -0.0000 0.3090
vn -0.0000 -0.0000 1.0000
vn 0.1276 0.9910 -0.0415
vn -0.0000 0.9910 -0.1342
vn -0.1276 0.9910 -0.0415
vn -0.0789 0.9910 0.1085
vn 0.0789 0.9910 0.1085
vn 0.1223 0.9917 -0.0397
vn 0.1291 0.9866 -0.1002
vn 0.1634 0.9866 0.0051
vn -0.0000 0.9917 -0.1286
vn -0.0553 0.9866 -0.1538
vn 0.0553 0.9866 -0.1538
vn -0.1223 0.9917 -0.0397
vn -0.1634 0.9866 0.0051
vn -0.1292 0.9866 -0.1002
vn -0.0756 0.9917 0.1040
vn -0.0456 0.9866 0.1569
vn -0.1352 0.9866 0.0919
vn 0.0756 0.9917 0.1040
vn 0.1352 0.9866 0.0919
vn 0.0456 0.9866 0.1569
vn -0.9511 -0.0000 0.3090
vn -0.5878 -0.0000 -0.8090
vn -0.0000 -0.9991 -0.0427
vn 0.0406 -0.9991 -0.0132
vn 0.0251 -0.9991 0.0345
vn -0.0251 -0.9991 0.0345
vn -0.0406 -0.9991 -0.0132
vn -0.0000 -0.9967 -0.0814
vn 0.0273 -0.9973 -0.0684
vn -0.0273 -0.9973 -0.0684
vn 0.0774 -0.9967 -0.0252
vn 0.0735 -0.9973 0.0049
vn 0.0566 -0.9973 -0.0472
vn 0.0479 -0.9967 0.0659
vn 0.0181 -0.9973 0.0714
vn 0.0623 -0.9973 0.0393
vn -0.0479 -0.9967 0.0659
vn -0.0623 -0.9973 0.0393
vn -0.0181 -0.9973 0.0714
vn -0.0774 -0.9967 -0.0252
vn -0.0566 -0.9973 -0.0472
vn -0.0735 -0.9973 0.0049
vt 0.950000 0.625000
vt 0.950000 0.750000
vt 0.900000 0.750000
vt 0.900000 0.625000
vt 0.950000 0.875000
vt 0.900000 0.875000
vt 0.850000 0.750000
vt 0.850000 0.625000
vt 0.850000 0.875000
vt 1.000000 0.500000
vt 1.000000 0.625000
vt 0.950000 0.500000
vt 1.000000 0.750000
vt 1.000000 0.875000
vt 1.000000 1.000000
vt 0.950000 1.000000
vt 0.900000 1.000000
vt 0.850000 1.000000
vt 0.800000 1.000000
vt 0.800000 0.875000
vt 0.800000 0.750000
vt 0.800000 0.625000
vt 0.850000 0.500000
vt 0.800000 0.500000
vt 0.900000 0.500000
vt 0.750000 0.625000
vt 0.750000 0.750000
vt 0.700000 0.750000
vt 0.700000 0.625000
vt 0.750000 0.875000
vt 0.700000 0.875000
vt 0.650000 0.750000
vt 0.650000 0.625000
vt 0.650000 0.875000
vt 0.750000 0.500000
vt 0.750000 1.000000
vt 0.700000 1.000000
vt 0.650000 1.000000
vt 0.600000 1.000000
vt 0.600000 0.875000
vt 0.600000 0.750000
vt 0.600000 0.625000
vt 0.650000 0.500000
vt 0.600000 0.500000
vt 0.700000 0.500000
vt 0.550000 0.625000
vt 0.550000 0.750000
vt 0.500000 0.750000
vt 0.500000 0.625000
vt 0.550000 0.875000
vt 0.500000 0.875000
vt 0.450000 0.750000
vt 0.450000 0.625000
vt 0.450000 0.875000
vt 0.550000 0.500000
vt 0.550000 1.000000
vt 0.500000 1.000000
vt 0.450000 1.000000
vt 0.400000 1.000000
vt 0.400000 0.875000
vt 0.400000 0.750000
vt 0.400000 0.625000
vt 0.450000 0.500000
vt 0.400000 0.500000
vt 0.500000 0.500000
vt 0.383548 0.293393
vt 0.308344 0.330304
vt 0.250000 0.250000
vt 0.344402 0.219327
vt 0.250000 0.390421
vt 0.191656 0.330304
vt 0.116452 0.293393
vt 0.155598 0.219327
vt 0.167463 0.136397
vt 0.250000 0.150739
vt 0.332537 0.136397
vt 0.478254 0.324164
vt 0.421190 0.365623
vt 0.456457 0.257082
vt 0.364127 0.407082
vt 0.434661 0.190000
vt 0.250000 0.490000
vt 0.192937 0.448541
vt 0.307063 0.448541
vt 0.135873 0.407082
vt 0.021746 0.324164
vt 0.043543 0.257082
vt 0.078810 0.365623
vt 0.065339 0.190000
vt 0.108932 0.055836
vt 0.179466 0.055836
vt 0.087135 0.122918
vt 0.250000 0.055836
vt 0.391068 0.055836
vt 0.412865 0.122918
vt 0.320534 0.055836
vt 0.350000 0.625000
vt 0.350000 0.750000
vt 0.300000 0.750000
vt 0.300000 0.625000
vt 0.350000 0.875000
vt 0.300000 0.875000
vt 0.250000 0.750000
vt 0.250000 0.625000
vt 0.250000 0.875000
vt 0.350000 0.500000
vt 0.350000 1.000000
vt 0.300000 1.000000
vt 0.250000 1.000000
vt 0.200000 1.000000
vt 0.200000 0.875000
vt 0.200000 0.750000
vt 0.200000 0.625000
vt 0.250000 0.500000
vt 0.200000 0.500000
vt 0.300000 0.500000
vt 0.150000 0.625000
vt 0.150000 0.750000
vt 0.100000 0.750000
vt 0.100000 0.625000
vt 0.150000 0.875000
vt 0.100000 0.875000
vt 0.050000 0.750000
vt 0.050000 0.625000
vt 0.050000 0.875000
vt 0.150000 0.500000
vt 0.150000 1.000000
vt 0.100000 1.000000
vt 0.050000 1.000000
vt 0.000000 1.000000
vt 0.000000 0.875000
vt 0.000000 0.750000
vt 0.000000 0.625000
vt 0.050000 0.500000
vt 0.000000 0.500000
vt 0.100000 0.500000
vt 0.750000 0.390421
vt 0.808344 0.330304
vt 0.750000 0.250000
vt 0.691656 0.330304
vt 0.883548 0.293393
vt 0.844403 0.219327
vt 0.832538 0.136397
vt 0.750000 0.150739
vt 0.667463 0.136397
vt 0.655598 0.219327
vt 0.616452 0.293393
vt 0.750000 0.490000
vt 0.807063 0.448541
vt 0.692937 0.448541
vt 0.864127 0.407082
vt 0.635873 0.407082
vt 0.978254 0.324164
vt 0.956457 0.257082
vt 0.921190 0.365623
vt 0.934661 0.190000
vt 0.891068 0.055836
vt 0.820534 0.055836
vt 0.912865 0.122918
vt 0.750000 0.055836
vt 0.608932 0.055836
vt 0.587135 0.122918
vt 0.679466 0.055836
vt 0.565339 0.190000
vt 0.521746 0.324164
vt 0.578810 0.365623
vt 0.543543 0.257082
s 0
f 56/1/1 57/2/1 60/3/1 59/4/1
f 57/2/1 58/5/1 61/6/1 60/3/1
f 59/4/1 60/3/1 63/7/1 62/8/1
f 60/3/1 61/6/1 64/9/1 63/7/1
f 1/10/1 17/11/1 56/1/1 11/12/1
f 17/11/1 18/13/1 57/2/1 56/1/1
f 18/13/1 19/14/1 58/5/1 57/2/1
f 19/14/1 2/15/1 16/16/1 58/5/1
f 58/5/1 16/16/1 15/17/1 61/6/1
f 61/6/1 15/17/1 14/18/1 64/9/1
f 64/9/1 14/18/1 4/19/1 20/20/1
f 63/7/1 64/9/1 20/20/1 21/21/1
f 62/8/1 63/7/1 21/21/1 22/22/1
f 13/23/1 62/8/1 22/22/1 3/24/1
f 12/25/1 59/4/1 62/8/1 13/23/1
f 11/12/1 56/1/1 59/4/1 12/25/1
f 65/26/2 66/27/2 69/28/2 68/29/2
f 66/27/2 67/30/2 70/31/2 69/28/2
f 68/29/2 69/28/2 72/32/2 71/33/2
f 69/28/2 70/31/2 73/34/2 72/32/2
f 3/24/2 22/22/2 65/26/2 23/35/2
f 22/22/2 21/21/2 66/27/2 65/26/2
f 21/21/2 20/20/2 67/30/2 66/27/2
f 20/20/2 4/19/2 28/36/2 67/30/2
f 67/30/2 28/36/2 27/37/2 70/31/2
f 70/31/2 27/37/2 26/38/2 73/34/2
f 73/34/2 26/38/2 6/39/2 29/40/2
f 72/32/2 73/34/2 29/40/2 30/41/2
f 71/33/2 72/32/2 30/41/2 31/42/2
f 25/43/2 71/33/2 31/42/2 5/44/2
f 24/45/2 68/29/2 71/33/2 25/43/2
f 23/35/2 65/26/2 68/29/2 24/45/2
f 74/46/3 75/47/3 78/48/3 77/49/3
f 75/47/3 76/50/3 79/51/3 78/48/3
f 77/49/3 78/48/3 81/52/3 80/53/3
f 78/48/3 79/51/3 82/54/3 81/52/3
f 5/44/3 31/42/3 74/46/3 32/55/3
f 31/42/3 30/41/3 75/47/3 74/46/3
f 30/41/3 29/40/3 76/50/3 75/47/3
f 29/40/3 6/39/3 37/56/3 76/50/3
f 76/50/3 37/56/3 36/57/3 79/51/3
f 79/51/3 36/57/3 35/58/3 82/54/3
f 82/54/3 35/58/3 8/59/3 38/60/3
f 81/52/3 82/54/3 38/60/3 39/61/3
f 80/53/3 81/52/3 39/61/3 40/62/3
f 34/63/3 80/53/3 40/62/3 7/64/3
f 33/65/3 77/49/3 80/53/3 34/63/3
f 32/55/3 74/46/3 77/49/3 33/65/3
f 84/66/4 85/67/4 83/68/4 93/69/4
f 86/70/5 87/71/5 83/68/5 85/67/5
f 88/72/6 89/73/6 83/68/6 87/71/6
f 90/74/7 91/75/7 83/68/7 89/73/7
f 92/76/8 93/69/8 83/68/8 91/75/8
f 4/77/9 14/78/9 84/66/9 28/79/9
f 14/78/10 15/80/10 85/67/10 84/66/10
f 28/79/11 84/66/11 93/69/11 27/81/11
f 2/82/12 53/83/12 86/70/12 16/84/12
f 53/83/13 54/85/13 87/71/13 86/70/13
f 16/84/14 86/70/14 85/67/14 15/80/14
f 10/86/15 44/87/15 88/72/15 55/88/15
f 44/87/16 45/89/16 89/73/16 88/72/16
f 55/88/17 88/72/17 87/71/17 54/85/17
f 8/90/18 35/91/18 90/74/18 46/92/18
f 35/91/19 36/93/19 91/75/19 90/74/19
f 46/92/20 90/74/20 89/73/20 45/89/20
f 6/94/21 26/95/21 92/76/21 37/96/21
f 26/95/22 27/81/22 93/69/22 92/76/22
f 37/96/23 92/76/23 91/75/23 36/93/23
f 94/97/24 95/98/24 98/99/24 97/100/24
f 95/98/24 96/101/24 99/102/24 98/99/24
f 97/100/24 98/99/24 101/103/24 100/104/24
f 98/99/24 99/102/24 102/105/24 101/103/24
f 7/64/24 40/62/24 94/97/24 41/106/24
f 40/62/24 39/61/24 95/98/24 94/97/24
f 39/61/24 38/60/24 96/101/24 95/98/24
f 38/60/24 8/59/24 46/107/24 96/101/24
f 96/101/24 46/107/24 45/108/24 99/102/24
f 99/102/24 45/108/24 44/109/24 102/105/24
f 102/105/24 44/109/24 10/110/24 47/111/24
f 101/103/24 102/105/24 47/111/24 48/112/24
f 100/104/24 101/103/24 48/112/24 49/113/24
f 43/114/24 100/104/24 49/113/24 9/115/24
f 42/116/24 97/100/24 100/104/24 43/114/24
f 41/106/24 94/97/24 97/100/24 42/116/24
f 103/117/25 104/118/25 107/119/25 106/120/25
f 104/118/25 105/121/25 108/122/25 107/119/25
f 106/120/25 107/119/25 110/123/25 109/124/25
f 107/119/25 108/122/25 111/125/25 110/123/25
f 9/115/25 49/113/25 103/117/25 50/126/25
f 49/113/25 48/112/25 104/118/25 103/117/25
f 48/112/25 47/111/25 105/121/25 104/118/25
f 47/111/25 10/110/25 55/127/25 105/121/25
f 105/121/25 55/127/25 54/128/25 108/122/25
f 108/122/25 54/128/25 53/129/25 111/125/25
f 111/125/25 53/129/25 2/130/25 19/131/25
f 110/123/25 111/125/25 19/131/25 18/132/25
f 109/124/25 110/123/25 18/132/25 17/133/25
f 52/134/25 109/124/25 17/133/25 1/135/25
f 51/136/25 106/120/25 109/124/25 52/134/25
f 50/126/25 103/117/25 106/120/25 51/136/25
f 113/137/26 114/138/26 112/139/26 122/140/26
f 115/141/27 116/142/27 112/139/27 114/138/27
f 117/143/28 118/144/28 112/139/28 116/142/28
f 119/145/29 120/146/29 112/139/29 118/144/29
f 121/147/30 122/140/30 112/139/30 120/146/30
f 1/148/31 11/149/31 113/137/31 52/150/31
f 11/149/32 12/151/32 114/138/32 113/137/32
f 52/150/33 113/137/33 122/140/33 51/152/33
f 3/153/34 23/154/34 115/141/34 13/155/34
f 23/154/35 24/156/35 116/142/35 115/141/35
f 13/155/36 115/141/36 114/138/36 12/151/36
f 5/157/37 32/158/37 117/143/37 25/159/37
f 32/158/38 33/160/38 118/144/38 117/143/38
f 25/159/39 117/143/39 116/142/39 24/156/39
f 7/161/40 41/162/40 119/145/40 34/163/40
f 41/162/41 42/164/41 120/146/41 119/145/41
f 34/163/42 119/145/42 118/144/42 33/160/42
f 9/165/43 50/166/43 121/147/43 43/167/43
f 50/166/44 51/152/44 122/140/44 121/147/44
f 43/167/45 121/147/45 120/146/45 42/164/45
